<svg width="34" height="10" viewBox="0 0 34 10" fill="none" xmlns="http://www.w3.org/2000/svg">
<g clip-path="url(#clip0_4368_573)">
<path fill-rule="evenodd" clip-rule="evenodd" d="M16.7447 3.56269C16.4573 3.56269 16.2251 3.79486 16.2251 4.07125V7.90772C16.2251 8.19517 16.4573 8.42736 16.7447 8.42736C17.0321 8.42736 17.2642 8.19517 17.2642 7.90772V4.07125C17.2642 3.79486 17.0321 3.56269 16.7447 3.56269ZM16.7447 1.65003C16.4241 1.65003 16.1588 1.91537 16.1588 2.236C16.1588 2.55662 16.4241 2.83303 16.7447 2.83303C17.0652 2.83303 17.3305 2.56768 17.3305 2.236C17.3305 1.91537 17.0652 1.65003 16.7447 1.65003ZM21.8076 4.07128C21.8076 3.75064 21.5534 3.62903 21.3212 3.62903H18.7455C18.4913 3.62903 18.2923 3.82803 18.2923 4.07128C18.2923 4.32556 18.4913 4.52458 18.7455 4.52458H20.4368L18.2481 7.57606C18.1817 7.6645 18.1486 7.78611 18.1486 7.88561C18.1486 8.20625 18.4029 8.38314 18.6239 8.38314H21.3544C21.6086 8.38314 21.8076 8.18414 21.8076 7.92983C21.8076 7.67556 21.6086 7.47656 21.3544 7.47656H19.5193L21.6639 4.49139C21.7744 4.33661 21.8076 4.20394 21.8076 4.07128ZM14.2243 6.48153C14.2243 7.11172 13.9479 7.49869 13.3178 7.49869C12.6877 7.49869 12.4224 7.11172 12.4224 6.48153V4.52458H13.362C14.1248 4.52458 14.2243 4.94472 14.2243 5.40908V6.48153ZM15.2634 5.38697C15.2634 4.31453 14.6996 3.618 13.3841 3.618H12.4335V2.16966C12.4335 1.8822 12.2013 1.65003 11.925 1.65003C11.6375 1.65003 11.4054 1.8822 11.4054 2.16966V6.48153C11.4054 7.55397 11.9802 8.42739 13.3399 8.42739C14.6885 8.42739 15.2744 7.54292 15.2744 6.48153V5.40908V5.38697H15.2634ZM25.8645 3.56269C25.5772 3.56269 25.345 3.79486 25.345 4.08231V6.4815C25.345 7.11169 25.0686 7.49864 24.4385 7.49864C23.8084 7.49864 23.5431 7.11169 23.5431 6.4815V4.08231C23.5431 3.79486 23.311 3.56269 23.0346 3.56269C22.7472 3.56269 22.5151 3.79486 22.5151 4.08231V6.4815C22.5151 7.55392 23.0899 8.42736 24.4496 8.42736C25.7982 8.42736 26.3841 7.54286 26.3841 6.4815V4.08231C26.3731 3.79486 26.1409 3.56269 25.8645 3.56269ZM33.7462 5.51967C33.7462 4.44722 33.249 3.57378 31.9004 3.57378C31.2923 3.57378 30.8612 3.75069 30.5626 4.04919C30.2643 3.76175 29.8332 3.57378 29.2251 3.57378C27.8764 3.57378 27.379 4.45828 27.379 5.51967V7.91883C27.379 8.20628 27.6111 8.43847 27.8875 8.43847C28.1748 8.43847 28.407 8.20628 28.407 7.91883V5.51967C28.407 4.88947 28.6059 4.5025 29.2251 4.5025C29.8551 4.5025 30.0432 4.88947 30.0432 5.51967V7.91883C30.0432 8.20628 30.2754 8.43847 30.5515 8.43847C30.839 8.43847 31.0712 8.20628 31.0712 7.91883V5.51967C31.0712 4.88947 31.2701 4.5025 31.8893 4.5025C32.5193 4.5025 32.7073 4.88947 32.7073 5.51967V7.91883C32.7073 8.20628 32.9393 8.43847 33.2157 8.43847C33.5032 8.43847 33.7354 8.20628 33.7354 7.91883L33.7462 5.51967ZM1.9539 3.57375C2.31869 3.83911 2.82719 3.76172 3.09249 3.39686L4.04318 2.08119C4.30849 1.71634 4.2311 1.20776 3.86632 0.942411C3.50152 0.677067 2.99302 0.754458 2.72771 1.11931L1.76597 2.43498C1.51172 2.79983 1.5891 3.30842 1.9539 3.57375ZM6.30932 1.71634C5.94452 1.45099 5.43602 1.52838 5.17071 1.89323L1.34589 7.15592C1.08059 7.52078 1.15797 8.02936 1.52276 8.29469C1.88756 8.56006 2.39606 8.48267 2.66136 8.11781L6.48618 2.85511C6.76254 2.49026 6.6741 1.98168 6.30932 1.71634ZM1.5891 1.29621C1.85441 0.931364 1.77702 0.422783 1.41223 0.157439C1.04743 -0.107907 0.53893 -0.0305148 0.273625 0.334336C0.00831992 0.699186 0.0857008 1.20777 0.450497 1.47311C0.815291 1.73846 1.32379 1.66106 1.5891 1.29621ZM7.39266 8.52689C7.02788 8.26153 6.51938 8.33894 6.25407 8.70378C5.98877 9.06864 6.06613 9.57722 6.43093 9.84256C6.79574 10.1079 7.30424 10.0305 7.56954 9.66567C7.83485 9.30081 7.75746 8.79222 7.39266 8.52689ZM5.90032 6.43728C5.53554 6.17194 5.02704 6.24933 4.76174 6.61419L3.79999 7.92986C3.53468 8.29469 3.61207 8.80328 3.97685 9.06864C4.34166 9.33397 4.85016 9.25658 5.11546 8.89172L6.07721 7.57606C6.34252 7.21122 6.26513 6.70264 5.90032 6.43728Z" fill="#05C0C7"/>
</g>
<defs>
<clipPath id="clip0_4368_573">
<rect width="33.8889" height="10" fill="white" transform="translate(0.116211)"/>
</clipPath>
</defs>
</svg>
