<svg width="42" height="10" viewBox="0 0 42 10" fill="none" xmlns="http://www.w3.org/2000/svg">
<g clip-path="url(#clip0_4368_481)">
<path fill-rule="evenodd" clip-rule="evenodd" d="M3.60166 2.35352H6.42219C7.93657 2.35352 8.50665 3.12017 8.41855 4.24649C8.27294 6.10597 7.14881 7.13473 5.65772 7.13473H4.9049C4.70032 7.13473 4.56271 7.27015 4.50738 7.6371L4.18776 9.77033C4.16664 9.90867 4.09384 9.98876 3.98463 9.99968H2.21251C2.04578 9.99968 1.98681 9.87226 2.03049 9.59633L3.11095 2.75759C3.15317 2.48384 3.30316 2.35352 3.60166 2.35352Z" fill="#009EE3"/>
<path fill-rule="evenodd" clip-rule="evenodd" d="M15.8472 2.22754C16.7987 2.22754 17.6768 2.74374 17.5567 4.03023C17.411 5.55917 16.592 6.40519 15.2996 6.40883H14.1704C14.0081 6.40883 13.9294 6.54134 13.8872 6.8129L13.6688 8.20133C13.636 8.41101 13.5283 8.5144 13.3695 8.5144H12.3189C12.1515 8.5144 12.0932 8.40737 12.1304 8.16784L12.9975 2.60322C13.0405 2.32947 13.1431 2.22754 13.3302 2.22754H15.845H15.8472ZM14.1362 5.20679H14.9917C15.5268 5.1864 15.8821 4.81582 15.9178 4.14745C15.9396 3.73464 15.6608 3.43904 15.2174 3.44123L14.4121 3.44487L14.1362 5.20679ZM20.4129 8.08848C20.509 8.00111 20.6065 7.95597 20.5927 8.06372L20.5585 8.32146C20.541 8.45615 20.5941 8.5275 20.7194 8.5275H21.6528C21.81 8.5275 21.8865 8.46416 21.9251 8.22099L22.5002 4.61123C22.5294 4.42994 22.4849 4.34112 22.3473 4.34112H21.3208C21.2283 4.34112 21.1832 4.39281 21.1591 4.53405L21.1213 4.75611C21.1016 4.87188 21.0485 4.89226 20.999 4.77577C20.8249 4.36369 20.3808 4.17876 19.7612 4.19332C18.3219 4.22317 17.3513 5.316 17.2472 6.7168C17.1671 7.80016 17.9433 8.65127 18.9669 8.65127C19.7095 8.65127 20.0415 8.43285 20.4158 8.09066L20.4129 8.08848ZM19.6309 7.53296C19.0113 7.53296 18.5796 7.03861 18.6691 6.43286C18.7587 5.8271 19.3382 5.33274 19.9578 5.33274C20.5774 5.33274 21.0091 5.8271 20.9196 6.43286C20.83 7.03861 20.2512 7.53296 19.6309 7.53296ZM24.3269 4.32947H23.3805C23.1853 4.32947 23.106 4.47508 23.1679 4.65419L24.343 8.09503L23.1904 9.73245C23.0936 9.86933 23.1686 9.99383 23.3047 9.99383H24.3684C24.4304 10.001 24.4932 9.99019 24.5492 9.96269C24.6052 9.9352 24.6522 9.89218 24.6844 9.83875L28.2986 4.65491C28.4099 4.49547 28.3575 4.32801 28.1748 4.32801H27.1679C26.9953 4.32801 26.9261 4.39645 26.8271 4.53988L25.32 6.72408L24.6466 4.53478C24.6073 4.40228 24.509 4.32947 24.3277 4.32947H24.3269Z" fill="#113984"/>
<path fill-rule="evenodd" clip-rule="evenodd" d="M32.0583 2.22704C33.0099 2.22704 33.888 2.74324 33.7678 4.02974C33.6222 5.55868 32.8032 6.40469 31.5108 6.40833H30.3823C30.22 6.40833 30.1413 6.54084 30.0991 6.81241L29.8807 8.20083C29.8479 8.41052 29.7402 8.5139 29.5815 8.5139H28.5309C28.3634 8.5139 28.3052 8.40688 28.3423 8.16734L29.2109 2.60127C29.2538 2.32752 29.3565 2.22559 29.5436 2.22559H32.0583V2.22704ZM30.3474 5.20629H31.2029C31.738 5.18591 32.0933 4.81532 32.129 4.14696C32.1508 3.73414 31.872 3.43855 31.4286 3.44073L30.6233 3.44437L30.3474 5.20629ZM36.624 8.08798C36.7202 8.00061 36.8177 7.95547 36.8039 8.06323L36.7697 8.32096C36.7522 8.45565 36.8053 8.52701 36.9306 8.52701H37.8639C38.0212 8.52701 38.0977 8.46367 38.1362 8.22049L38.7114 4.61073C38.7405 4.42945 38.6961 4.34062 38.5585 4.34062H37.5334C37.4409 4.34062 37.3958 4.39231 37.3718 4.53356L37.3339 4.75562C37.3143 4.87138 37.2611 4.89177 37.2116 4.77528C37.0376 4.36319 36.5935 4.17826 35.9739 4.19282C34.5345 4.22267 33.564 5.3155 33.4599 6.7163C33.3798 7.79967 34.1559 8.65078 35.1796 8.65078C35.9222 8.65078 36.2542 8.43236 36.6284 8.09017L36.624 8.08798ZM35.8428 7.53247C35.2232 7.53247 34.7915 7.03811 34.8811 6.43236C34.9706 5.82661 35.5501 5.33225 36.1697 5.33225C36.7893 5.33225 37.2211 5.82661 37.1315 6.43236C37.042 7.03811 36.4624 7.53247 35.8428 7.53247ZM40.1479 8.53283H39.0704C39.0516 8.53367 39.0329 8.53036 39.0156 8.52313C38.9983 8.51591 38.9828 8.50495 38.9702 8.49104C38.9576 8.47713 38.9482 8.46061 38.9428 8.44266C38.9373 8.42472 38.9359 8.40578 38.9386 8.38722L39.8851 2.39086C39.8941 2.34993 39.9167 2.31327 39.9492 2.28683C39.9817 2.2604 40.0223 2.24574 40.0642 2.24525H41.1417C41.1604 2.24441 41.1791 2.24772 41.1965 2.25494C41.2138 2.26217 41.2293 2.27312 41.2419 2.28703C41.2545 2.30094 41.2638 2.31746 41.2693 2.33541C41.2747 2.35336 41.2762 2.37229 41.2735 2.39086L40.327 8.38722C40.3182 8.42841 40.2958 8.46541 40.2632 8.49213C40.2307 8.51885 40.19 8.53372 40.1479 8.53429V8.53283Z" fill="#009EE3"/>
<path fill-rule="evenodd" clip-rule="evenodd" d="M1.83752 0H4.66096C5.45601 0 6.39959 0.0254823 7.03009 0.582454C7.45164 0.954496 7.67298 1.54641 7.62201 2.1842C7.44873 4.34001 6.15932 5.54787 4.42944 5.54787H3.03737C2.80002 5.54787 2.64349 5.70513 2.57651 6.13032L2.18772 8.60575C2.16224 8.76592 2.09307 8.86057 1.9693 8.87222H0.227035C0.0340968 8.87222 -0.0343421 8.72661 0.0158945 8.40481L1.26817 0.470331C1.31841 0.151437 1.49387 0 1.83752 0Z" fill="#113984"/>
<path fill-rule="evenodd" clip-rule="evenodd" d="M2.61719 5.87955L3.11009 2.75832C3.15305 2.48457 3.30303 2.35352 3.60153 2.35352H6.42207C6.88876 2.35352 7.26662 2.42632 7.56222 2.56102C7.279 4.4802 6.03765 5.54609 4.4126 5.54609H3.02272C2.83634 5.54682 2.69946 5.64001 2.61719 5.87955Z" fill="#172C70"/>
</g>
<defs>
<clipPath id="clip0_4368_481">
<rect width="41.2763" height="10" fill="white"/>
</clipPath>
</defs>
</svg>
