<svg width="23" height="14" viewBox="0 0 23 14" fill="none" xmlns="http://www.w3.org/2000/svg">
<g clip-path="url(#clip0_4368_575)">
<path d="M4.39255 0H9.98199C10.7658 0 11.249 0.637599 11.0672 1.4193L8.46327 12.5816C8.28071 13.3613 7.49873 13.997 6.7191 13.997H1.12799C0.345994 13.997 -0.137906 13.3613 0.0434301 12.5816L2.64622 1.4193C2.82893 0.637599 3.61042 0 4.39255 0Z" fill="#ED171F"/>
<path d="M9.51898 0H15.9468C16.7278 0 16.3757 0.637599 16.1919 1.4193L13.5886 12.5816C13.4069 13.3613 13.464 13.997 12.6822 13.997H6.25448C5.47083 13.997 4.98649 13.3613 5.17028 12.5816L7.77178 1.4193C7.95651 0.637599 8.73597 0 9.51898 0Z" fill="#082F67"/>
<path d="M15.693 0H21.2818C22.0639 0 22.5502 0.637599 22.367 1.4193L19.7632 12.5816C19.5808 13.3613 18.7979 13.997 18.0167 13.997H12.4285C11.6473 13.997 11.1618 13.3613 11.3447 12.5816L13.9481 1.4193C14.1305 0.637599 14.9117 0 15.693 0Z" fill="#006A65"/>
<path fill-rule="evenodd" clip-rule="evenodd" d="M8.59021 5.60963C8.42367 5.51041 8.13706 5.541 7.94061 5.67716C7.74428 5.81081 7.72031 5.99582 7.88551 6.09424C8.04953 6.19181 8.34157 6.16316 8.53595 6.02714C8.72892 5.89104 8.7558 5.7035 8.59021 5.60963ZM20.9395 5.78432L20.9117 5.75257C20.5482 5.82661 20.4824 5.83852 20.1488 5.88188L20.1246 5.90562C20.1237 5.90909 20.1237 5.91522 20.1208 5.92121L20.1194 5.91522C19.8697 6.48917 19.8793 6.36391 19.6766 6.81425C19.6732 6.7947 19.6732 6.78012 19.6732 6.75984L19.6233 5.78432L19.5917 5.75257C19.212 5.82661 19.2015 5.83852 18.8519 5.88188L18.8224 5.90562C18.8219 5.9189 18.8202 5.93247 18.8188 5.94387L18.8219 5.95C18.8632 6.17362 18.8551 6.12318 18.8972 6.47727C18.9185 6.65024 18.9463 6.82594 18.967 6.99552C19.0007 7.28322 19.0209 7.42379 19.0632 7.86179C18.8252 8.25022 18.7692 8.39931 18.5442 8.74228L18.5448 8.74444L18.3834 8.99953C18.3634 9.02616 18.3475 9.04319 18.3235 9.05012C18.2983 9.06339 18.2645 9.06801 18.2192 9.06801H18.1291L17.9968 9.50652L18.4515 9.51345C18.7189 9.51222 18.8858 9.38832 18.9764 9.22077L19.2618 8.73282H19.2583L19.2871 8.69805C19.4783 8.28522 20.9395 5.78432 20.9395 5.78432ZM15.7234 5.41032C15.6708 5.64347 15.5206 5.84198 15.3257 5.9347C15.1624 6.0161 14.9665 6.02274 14.7634 6.02274H14.6313L14.6415 5.97158C14.6415 5.97158 14.8844 4.9192 14.8832 4.92137L14.8908 4.86869L14.8959 4.82684L14.9925 4.83615C14.9925 4.83615 15.4888 4.87836 15.5018 4.87836C15.6981 4.95528 15.7798 5.15394 15.7234 5.41032ZM16.6213 5.34516C16.6451 5.25142 16.6614 5.13806 16.6614 5.02758C16.6614 4.87836 16.6332 4.73707 16.5483 4.62205C16.3304 4.32021 15.9036 4.31653 15.4049 4.314L15.1616 4.31653C14.5255 4.32381 14.2731 4.32021 14.1667 4.30664C14.158 4.35376 14.1392 4.4366 14.1392 4.4366L13.9136 5.49193C13.9136 5.49193 13.3701 7.73176 13.3442 7.83654C13.8969 7.83033 14.1264 7.83033 14.2185 7.84014C14.2426 7.73436 14.3711 7.10736 14.3711 7.10736C14.3711 7.10736 14.4805 6.65024 14.487 6.63364C14.487 6.63364 14.5242 6.58659 14.5586 6.56603H14.6092C15.0862 6.56603 15.6271 6.56603 16.0514 6.25718C16.3372 6.04265 16.5336 5.72746 16.6213 5.34516ZM12.7618 5.75481C12.6562 5.75481 12.4622 5.78057 12.2894 5.86615C12.2276 5.8992 12.1645 5.9347 12.1039 5.97323L12.1593 5.76722L12.1292 5.73266C11.7608 5.80698 11.6803 5.81903 11.34 5.86615L11.3134 5.88513C11.2722 6.21114 11.2381 6.45649 11.0915 7.10044C11.0357 7.33359 10.9797 7.57286 10.92 7.81027L10.9376 7.84014C11.2843 7.82318 11.3897 7.82318 11.6903 7.82665L11.718 7.80046C11.7543 7.60332 11.7608 7.55829 11.8431 7.15917C11.8839 6.96889 11.9693 6.55404 12.0104 6.40576C12.0849 6.37221 12.1593 6.33988 12.2336 6.33988C12.3993 6.33988 12.3805 6.48557 12.3745 6.54596C12.3667 6.64418 12.3061 6.96672 12.2411 7.24475L12.2004 7.4214C12.1684 7.55512 12.1356 7.68356 12.1066 7.81626L12.1191 7.84014C12.4647 7.82318 12.5671 7.82318 12.86 7.82665L12.8963 7.80046C12.9479 7.49371 12.9621 7.41072 13.0578 6.96413L13.1024 6.7584C13.1972 6.35568 13.2433 6.15241 13.1744 5.98608C13.0987 5.79969 12.9206 5.75481 12.7618 5.75481ZM17.5301 6.64626C17.5174 6.7032 17.5042 6.76316 17.4886 6.83063C17.4656 6.93021 17.44 7.02871 17.4153 7.12771C17.3903 7.19475 17.3614 7.2581 17.3295 7.29967C17.2672 7.38518 17.1259 7.43728 17.0425 7.43728C17.0199 7.43728 16.8772 7.43728 16.8719 7.22499C16.8704 7.12187 16.8929 7.01276 16.9182 6.89233C16.9967 6.55895 17.0874 6.27291 17.3213 6.27291C17.4696 6.27291 17.5469 6.41023 17.5301 6.64626ZM18.0687 7.83192C18.12 7.52856 18.17 7.23401 18.3041 6.65023C18.3672 6.37221 18.4349 6.09424 18.5031 5.81903L18.4904 5.78808C18.1237 5.85496 18.0273 5.86933 17.6759 5.92121L17.6473 5.94177C17.6437 5.96956 17.6403 5.99654 17.6368 6.02339C17.5816 5.9347 17.5012 5.85857 17.3775 5.81081C17.2235 5.75156 16.8536 5.83267 16.5386 6.1195C16.3179 6.32407 16.2099 6.60578 16.1479 6.87516C16.0853 7.14734 16.0097 7.6451 16.4682 7.82318C16.6128 7.88351 16.7441 7.90148 16.8738 7.89643C17.013 7.88885 17.1422 7.81915 17.2618 7.71877C17.2509 7.76012 17.2403 7.80104 17.229 7.84231L17.2507 7.86771C17.5797 7.8545 17.6804 7.8545 18.036 7.85566L18.0687 7.83192ZM10.0827 6.78481C10.0691 6.85834 10.0024 7.14229 9.91153 7.26237C9.84988 7.3517 9.77456 7.40546 9.69044 7.40546C9.66748 7.40546 9.52267 7.40546 9.52015 7.19063C9.5169 7.08471 9.53952 6.97437 9.56836 6.85574C9.64329 6.51385 9.7372 6.22644 9.97 6.22644C10.1518 6.22644 10.1638 6.44184 10.0827 6.78481ZM10.0718 5.76722C9.90313 5.76722 9.50189 5.78432 9.18751 6.07527C8.96457 6.28092 8.86019 6.56451 8.79534 6.83431C8.7329 7.1122 8.6582 7.60916 9.11661 7.79533C9.25992 7.8545 9.46202 7.87132 9.59239 7.87132C9.92912 7.87132 10.273 7.77844 10.5301 7.50453C10.731 7.28322 10.8212 6.95482 10.8517 6.81642C10.9563 6.36391 10.8775 6.1545 10.7761 6.02584C10.6208 5.83122 10.3526 5.76722 10.0718 5.76722ZM8.58573 6.176C8.40446 6.21114 8.28837 6.2325 8.17424 6.25134C8.05928 6.2688 7.94772 6.28453 7.76998 6.30877L7.7562 6.32169L7.74428 6.33165C7.72568 6.4637 7.71348 6.57577 7.68878 6.7102C7.66492 6.84766 7.6344 7.00519 7.58316 7.22896C7.54297 7.40106 7.52291 7.46095 7.49967 7.52163C7.47817 7.58261 7.45364 7.64257 7.40976 7.81027L7.41986 7.82528L7.42989 7.84014C7.5942 7.83192 7.70004 7.82665 7.81148 7.82528C7.92252 7.82318 8.03688 7.82528 8.21389 7.82665L8.23008 7.81626L8.24604 7.80046C8.2723 7.64762 8.27482 7.60699 8.29106 7.53109C8.30663 7.45135 8.33289 7.34188 8.3992 7.04733C8.42944 6.90626 8.46595 6.76973 8.49776 6.62851C8.53248 6.48557 8.56585 6.34716 8.59828 6.20768L8.59301 6.19339L8.58573 6.176ZM6.92232 5.75481C6.81668 5.75481 6.6233 5.78057 6.45033 5.86615C6.38596 5.8992 6.32557 5.9347 6.26401 5.97323L6.31936 5.76722L6.28884 5.73266C5.92176 5.80698 5.83806 5.81903 5.5002 5.86615L5.473 5.88513C5.43028 6.21114 5.39897 6.45649 5.25046 7.10044C5.19418 7.33359 5.13595 7.57286 5.07814 7.81027L5.09322 7.84014C5.44565 7.82318 5.54862 7.82318 5.85054 7.82665L5.87652 7.80046C5.91289 7.60332 5.91902 7.55829 6.00561 7.15917C6.04371 6.96889 6.12641 6.55404 6.16811 6.40576C6.24518 6.37221 6.31749 6.33988 6.39008 6.33988C6.55972 6.33988 6.53829 6.48557 6.53338 6.54596C6.52689 6.64418 6.46296 6.96672 6.3996 7.24475L6.3589 7.4214C6.32917 7.55512 6.29641 7.68356 6.26705 7.81626L6.28046 7.84014C6.6233 7.82318 6.7254 7.82318 7.01995 7.82665L7.05387 7.80046C7.10705 7.49371 7.12336 7.41072 7.21767 6.96413L7.26494 6.7584C7.35694 6.35568 7.4024 6.15241 7.33284 5.98608C7.25938 5.79969 7.08274 5.75481 6.92232 5.75481ZM5.43028 4.32937C4.82905 4.33572 4.65356 4.32937 4.59641 4.31653C4.57274 4.41849 4.16742 6.28706 4.16742 6.28706C4.07982 6.66604 4.01495 6.93649 3.80085 7.10736C3.67731 7.20969 3.53458 7.26034 3.36869 7.26034C3.10329 7.26034 2.94829 7.12764 2.92051 6.87516L2.91776 6.79095C2.91776 6.79095 2.9975 6.28453 2.99952 6.28092C2.99952 6.28092 3.42281 4.57839 3.49937 4.35376C3.50139 4.34027 3.50348 4.33572 3.5068 4.32937C2.67697 4.33666 2.52976 4.32937 2.52038 4.31653C2.51649 4.33334 2.49289 4.4392 2.49289 4.4392L2.05986 6.35568L2.02154 6.52049L1.95068 7.05209C1.95068 7.20969 1.98135 7.33719 2.04312 7.44767C2.24343 7.79533 2.807 7.84476 3.12689 7.84476C3.53776 7.84476 3.92136 7.75839 4.1825 7.59812C4.6353 7.33149 4.75559 6.91391 4.85885 6.54344L4.90958 6.35193C4.90958 6.35193 5.34867 4.58453 5.42422 4.35376C5.42422 4.34027 5.42653 4.33572 5.43028 4.32937Z" fill="white"/>
</g>
<defs>
<clipPath id="clip0_4368_575">
<rect width="22.4" height="14" fill="white" transform="translate(0.00537109)"/>
</clipPath>
</defs>
</svg>
